<svg width="24" height="25" viewBox="0 0 24 25" fill="none" xmlns="http://www.w3.org/2000/svg">
<path d="M12 2.23389C6.486 2.23389 2 6.71989 2 12.2339C2 17.7479 6.486 22.2339 12 22.2339C17.514 22.2339 22 17.7479 22 12.2339C22 6.71989 17.514 2.23389 12 2.23389ZM10.001 16.6469L6.99545 13.6478C6.6047 13.2579 6.60391 12.6251 6.99369 12.2342C7.38371 11.8431 8.01701 11.8423 8.40793 12.2326L9.999 13.8209L14.586 9.23389C14.9765 8.84342 15.6095 8.84342 16 9.23389C16.3905 9.62435 16.3905 10.2574 16 10.6479L10.001 16.6469Z" fill="#2FAB73"/>
</svg>
